<svg width="949" height="949" viewBox="0 0 949 949" fill="none" xmlns="http://www.w3.org/2000/svg">
<path d="M471.989 279.511C354.829 279.511 257.753 374.914 257.753 493.748C257.753 612.582 353.155 707.984 471.989 707.984C590.823 707.984 686.226 610.908 686.226 493.748C686.226 376.587 589.15 279.511 471.989 279.511ZM471.989 630.993C396.672 630.993 334.744 569.065 334.744 493.748C334.744 418.43 396.672 356.503 471.989 356.503C547.307 356.503 609.234 418.43 609.234 493.748C609.234 569.065 547.307 630.993 471.989 630.993Z" fill="url(#paint0_linear_266_381)"/>
<path d="M694.594 323.028C721.4 323.028 743.132 301.297 743.132 274.49C743.132 247.684 721.4 225.952 694.594 225.952C667.787 225.952 646.056 247.684 646.056 274.49C646.056 301.297 667.787 323.028 694.594 323.028Z" fill="url(#paint1_linear_266_381)"/>
<path d="M820.123 148.961C776.606 103.771 714.679 80.3386 644.382 80.3386H299.596C153.982 80.3386 56.9062 177.414 56.9062 323.028V666.141C56.9062 738.111 80.3383 800.039 127.203 845.229C172.393 888.746 232.647 910.504 301.27 910.504H642.709C714.679 910.504 774.933 887.072 818.449 845.229C863.64 801.713 887.072 739.785 887.072 667.815V323.028C887.072 252.732 863.64 192.478 820.123 148.961ZM813.428 667.815C813.428 719.7 795.017 761.543 764.89 789.996C734.763 818.45 692.92 833.513 642.709 833.513H301.27C251.058 833.513 209.215 818.45 179.088 789.996C148.961 759.87 133.897 718.026 133.897 666.141V323.028C133.897 272.817 148.961 230.974 179.088 200.847C207.541 172.393 251.058 157.33 301.27 157.33H646.056C696.268 157.33 738.111 172.393 768.238 202.52C796.691 232.647 813.428 274.49 813.428 323.028V667.815Z" fill="url(#paint2_linear_266_381)"/>
<defs>
<linearGradient id="paint0_linear_266_381" x1="29.6915" y1="695.89" x2="807.162" y2="695.89" gradientUnits="userSpaceOnUse">
<stop offset="0.124584" stop-color="#AE8625"/>
<stop offset="0.560417" stop-color="#F7EF8A"/>
<stop offset="0.977083" stop-color="#AE8625"/>
</linearGradient>
<linearGradient id="paint1_linear_266_381" x1="594.385" y1="320.288" x2="770.531" y2="320.288" gradientUnits="userSpaceOnUse">
<stop offset="0.0656249" stop-color="#AE8625"/>
<stop offset="0.51875" stop-color="#F7EF8A"/>
<stop offset="0.977083" stop-color="#AE8625"/>
</linearGradient>
<linearGradient id="paint2_linear_266_381" x1="-384.963" y1="887.072" x2="1121.39" y2="887.072" gradientUnits="userSpaceOnUse">
<stop offset="0.124584" stop-color="#AE8625"/>
<stop offset="0.560417" stop-color="#F7EF8A"/>
<stop offset="0.977083" stop-color="#AE8625"/>
</linearGradient>
</defs>
</svg>
